<mxfile host="Electron" modified="2023-04-17T13:01:14.269Z" agent="Mozilla/5.0 (Windows NT 10.0; Win64; x64) AppleWebKit/537.36 (KHTML, like Gecko) draw.io/21.1.2 Chrome/106.0.5249.199 Electron/21.4.3 Safari/537.36" etag="tfX2NxGjXqCKR-0-hk9W" version="21.1.2" type="device">
  <diagram name="第 1 页" id="tR5FQUUQU-nptVxrCjcd">
    <mxGraphModel dx="1742" dy="823" grid="1" gridSize="10" guides="1" tooltips="1" connect="1" arrows="1" fold="1" page="1" pageScale="1" pageWidth="827" pageHeight="1169" math="0" shadow="0">
      <root>
        <mxCell id="0" />
        <mxCell id="1" parent="0" />
        <mxCell id="duessJ10JQ4VVlh8yvME-13" style="edgeStyle=orthogonalEdgeStyle;rounded=0;orthogonalLoop=1;jettySize=auto;html=1;exitX=0.5;exitY=1;exitDx=0;exitDy=0;entryX=0.5;entryY=0;entryDx=0;entryDy=0;endArrow=none;endFill=0;" edge="1" parent="1" source="duessJ10JQ4VVlh8yvME-1" target="duessJ10JQ4VVlh8yvME-7">
          <mxGeometry relative="1" as="geometry" />
        </mxCell>
        <mxCell id="duessJ10JQ4VVlh8yvME-1" value="&lt;font style=&quot;font-size: 20px;&quot;&gt;主控端系统&lt;/font&gt;" style="rounded=0;whiteSpace=wrap;html=1;fillColor=#f8cecc;strokeColor=#b85450;" vertex="1" parent="1">
          <mxGeometry x="414" y="250" width="120" height="60" as="geometry" />
        </mxCell>
        <mxCell id="duessJ10JQ4VVlh8yvME-2" value="&lt;font style=&quot;font-size: 20px;&quot;&gt;被控端1&lt;/font&gt;" style="ellipse;whiteSpace=wrap;html=1;fillColor=#fff2cc;strokeColor=#d6b656;" vertex="1" parent="1">
          <mxGeometry x="200" y="450" width="120" height="70" as="geometry" />
        </mxCell>
        <mxCell id="duessJ10JQ4VVlh8yvME-3" value="&lt;font style=&quot;font-size: 20px;&quot;&gt;被控端2&lt;/font&gt;" style="ellipse;whiteSpace=wrap;html=1;fillColor=#fff2cc;strokeColor=#d6b656;" vertex="1" parent="1">
          <mxGeometry x="354" y="450" width="120" height="70" as="geometry" />
        </mxCell>
        <mxCell id="duessJ10JQ4VVlh8yvME-4" value="&lt;font style=&quot;font-size: 20px;&quot;&gt;被控端3&lt;/font&gt;" style="ellipse;whiteSpace=wrap;html=1;fillColor=#fff2cc;strokeColor=#d6b656;" vertex="1" parent="1">
          <mxGeometry x="630" y="450" width="120" height="70" as="geometry" />
        </mxCell>
        <mxCell id="duessJ10JQ4VVlh8yvME-5" value="&lt;font style=&quot;font-size: 24px;&quot;&gt;................&lt;/font&gt;" style="text;html=1;align=center;verticalAlign=middle;resizable=0;points=[];autosize=1;strokeColor=none;fillColor=none;" vertex="1" parent="1">
          <mxGeometry x="480" y="460" width="130" height="40" as="geometry" />
        </mxCell>
        <mxCell id="duessJ10JQ4VVlh8yvME-10" style="rounded=0;orthogonalLoop=1;jettySize=auto;html=1;exitX=0;exitY=1;exitDx=0;exitDy=0;endArrow=none;endFill=0;" edge="1" parent="1" source="duessJ10JQ4VVlh8yvME-7" target="duessJ10JQ4VVlh8yvME-2">
          <mxGeometry relative="1" as="geometry" />
        </mxCell>
        <mxCell id="duessJ10JQ4VVlh8yvME-11" style="rounded=0;orthogonalLoop=1;jettySize=auto;html=1;exitX=1;exitY=1;exitDx=0;exitDy=0;entryX=0;entryY=0;entryDx=0;entryDy=0;strokeColor=default;endArrow=none;endFill=0;" edge="1" parent="1" source="duessJ10JQ4VVlh8yvME-7" target="duessJ10JQ4VVlh8yvME-4">
          <mxGeometry relative="1" as="geometry" />
        </mxCell>
        <mxCell id="duessJ10JQ4VVlh8yvME-12" style="rounded=0;orthogonalLoop=1;jettySize=auto;html=1;endArrow=none;endFill=0;" edge="1" parent="1" source="duessJ10JQ4VVlh8yvME-7" target="duessJ10JQ4VVlh8yvME-3">
          <mxGeometry relative="1" as="geometry" />
        </mxCell>
        <mxCell id="duessJ10JQ4VVlh8yvME-7" value="&lt;font style=&quot;font-size: 15px;&quot;&gt;数据交互协议&lt;/font&gt;" style="rhombus;whiteSpace=wrap;html=1;fillColor=#dae8fc;strokeColor=#6c8ebf;" vertex="1" parent="1">
          <mxGeometry x="396.5" y="350" width="155" height="60" as="geometry" />
        </mxCell>
        <mxCell id="duessJ10JQ4VVlh8yvME-28" style="rounded=0;orthogonalLoop=1;jettySize=auto;html=1;exitX=0;exitY=0;exitDx=0;exitDy=0;entryX=0.5;entryY=1;entryDx=0;entryDy=0;endArrow=none;endFill=0;" edge="1" parent="1" source="duessJ10JQ4VVlh8yvME-18" target="duessJ10JQ4VVlh8yvME-24">
          <mxGeometry relative="1" as="geometry" />
        </mxCell>
        <mxCell id="duessJ10JQ4VVlh8yvME-18" value="&lt;font style=&quot;font-size: 20px;&quot;&gt;被控&lt;font style=&quot;font-size: 20px;&quot;&gt;端2&lt;/font&gt;&lt;/font&gt;" style="ellipse;whiteSpace=wrap;html=1;fillColor=#ffe6cc;strokeColor=#d79b00;" vertex="1" parent="1">
          <mxGeometry x="95" y="1000" width="120" height="70" as="geometry" />
        </mxCell>
        <mxCell id="duessJ10JQ4VVlh8yvME-25" style="rounded=0;orthogonalLoop=1;jettySize=auto;html=1;exitX=0;exitY=0.5;exitDx=0;exitDy=0;endArrow=none;endFill=0;" edge="1" parent="1" source="duessJ10JQ4VVlh8yvME-24">
          <mxGeometry relative="1" as="geometry">
            <mxPoint x="-189.99999999999977" y="935" as="targetPoint" />
          </mxGeometry>
        </mxCell>
        <mxCell id="duessJ10JQ4VVlh8yvME-39" style="rounded=0;orthogonalLoop=1;jettySize=auto;html=1;exitX=0.25;exitY=0;exitDx=0;exitDy=0;entryX=1;entryY=1;entryDx=0;entryDy=0;endArrow=none;endFill=0;" edge="1" parent="1" source="duessJ10JQ4VVlh8yvME-24" target="duessJ10JQ4VVlh8yvME-38">
          <mxGeometry relative="1" as="geometry" />
        </mxCell>
        <mxCell id="duessJ10JQ4VVlh8yvME-24" value="&lt;font style=&quot;font-size: 24px;&quot;&gt;路由器&lt;/font&gt;" style="rounded=1;whiteSpace=wrap;html=1;fillColor=#dae8fc;strokeColor=#6c8ebf;" vertex="1" parent="1">
          <mxGeometry x="-81" y="900" width="150" height="70" as="geometry" />
        </mxCell>
        <mxCell id="duessJ10JQ4VVlh8yvME-29" value="" style="ellipse;whiteSpace=wrap;html=1;fillColor=none;" vertex="1" parent="1">
          <mxGeometry x="-481" y="700" width="950" height="440" as="geometry" />
        </mxCell>
        <mxCell id="duessJ10JQ4VVlh8yvME-37" style="rounded=0;orthogonalLoop=1;jettySize=auto;html=1;entryX=1;entryY=0.5;entryDx=0;entryDy=0;endArrow=none;endFill=0;" edge="1" parent="1" source="duessJ10JQ4VVlh8yvME-30" target="duessJ10JQ4VVlh8yvME-24">
          <mxGeometry relative="1" as="geometry" />
        </mxCell>
        <mxCell id="duessJ10JQ4VVlh8yvME-30" value="&lt;font style=&quot;font-size: 20px;&quot;&gt;电脑&lt;/font&gt;" style="ellipse;whiteSpace=wrap;html=1;" vertex="1" parent="1">
          <mxGeometry x="134" y="830" width="120" height="80" as="geometry" />
        </mxCell>
        <mxCell id="duessJ10JQ4VVlh8yvME-36" style="rounded=0;orthogonalLoop=1;jettySize=auto;html=1;entryX=0.5;entryY=0;entryDx=0;entryDy=0;endArrow=none;endFill=0;" edge="1" parent="1" source="duessJ10JQ4VVlh8yvME-31" target="duessJ10JQ4VVlh8yvME-24">
          <mxGeometry relative="1" as="geometry" />
        </mxCell>
        <mxCell id="duessJ10JQ4VVlh8yvME-31" value="&lt;font style=&quot;font-size: 20px;&quot;&gt;手机&lt;/font&gt;" style="ellipse;whiteSpace=wrap;html=1;" vertex="1" parent="1">
          <mxGeometry x="10" y="770" width="120" height="80" as="geometry" />
        </mxCell>
        <mxCell id="duessJ10JQ4VVlh8yvME-34" style="rounded=0;orthogonalLoop=1;jettySize=auto;html=1;exitX=1;exitY=0;exitDx=0;exitDy=0;entryX=0.5;entryY=1;entryDx=0;entryDy=0;endArrow=none;endFill=0;" edge="1" parent="1" source="duessJ10JQ4VVlh8yvME-32" target="duessJ10JQ4VVlh8yvME-24">
          <mxGeometry relative="1" as="geometry" />
        </mxCell>
        <mxCell id="duessJ10JQ4VVlh8yvME-32" value="&lt;font style=&quot;font-size: 20px;&quot;&gt;被控&lt;font style=&quot;font-size: 20px;&quot;&gt;端1&lt;/font&gt;&lt;/font&gt;" style="ellipse;whiteSpace=wrap;html=1;fillColor=#ffe6cc;strokeColor=#d79b00;" vertex="1" parent="1">
          <mxGeometry x="-210" y="1000" width="120" height="70" as="geometry" />
        </mxCell>
        <mxCell id="duessJ10JQ4VVlh8yvME-35" value="&lt;span style=&quot;font-size: 20px;&quot;&gt;主控端&lt;/span&gt;" style="ellipse;whiteSpace=wrap;html=1;fillColor=#f8cecc;strokeColor=#b85450;" vertex="1" parent="1">
          <mxGeometry x="-310" y="900" width="120" height="70" as="geometry" />
        </mxCell>
        <mxCell id="duessJ10JQ4VVlh8yvME-38" value="&lt;font style=&quot;font-size: 20px;&quot;&gt;其他设备&lt;/font&gt;" style="ellipse;whiteSpace=wrap;html=1;" vertex="1" parent="1">
          <mxGeometry x="-170" y="770" width="120" height="80" as="geometry" />
        </mxCell>
        <mxCell id="duessJ10JQ4VVlh8yvME-40" value="&lt;font style=&quot;font-size: 20px;&quot;&gt;局域网&lt;/font&gt;" style="text;html=1;align=center;verticalAlign=middle;resizable=0;points=[];autosize=1;strokeColor=none;fillColor=none;" vertex="1" parent="1">
          <mxGeometry x="230" y="750" width="80" height="40" as="geometry" />
        </mxCell>
      </root>
    </mxGraphModel>
  </diagram>
</mxfile>
